<?xml version="1.0" encoding="utf-8"?>
<!-- Generator: Adobe Illustrator 25.0.0, SVG Export Plug-In . SVG Version: 6.00 Build 0)  -->
<svg version="1.1" id="图层_1" xmlns:serif="http://www.serif.com/"
	 xmlns="http://www.w3.org/2000/svg" xmlns:xlink="http://www.w3.org/1999/xlink" x="0px" y="0px" viewBox="0 0 30 30"
	 style="enable-background:new 0 0 30 30;" xml:space="preserve">
<style type="text/css">
	.st0{fill:none;}
	.st1{fill:#FFFFFF;}
</style>
<rect x="120" y="-844.9" class="st0" width="843.8" height="843.8"/>
<path class="st1" d="M27.4,11.8c0-6.5-5.2-11.7-11.7-11.7S4,5.3,4,11.8c0,5.8,4.3,10.7,9.9,11.6v-8.2h-3v-3.4h3V9.2
	c0-2.9,1.7-4.6,4.4-4.6c1.3,0,2.6,0.2,2.6,0.2v2.9h-1.5c-1.5,0-1.9,0.9-1.9,1.8v2.2h3.2l-0.5,3.4h-2.7v8.2
	C23.1,22.4,27.4,17.6,27.4,11.8z"/>
<path class="st0" d="M20.2,15.1l0.5-3.4h-3.2V9.6c0-0.9,0.5-1.8,1.9-1.8h1.5v-3c0,0-1.3-0.2-2.6-0.2c-2.7,0-4.4,1.6-4.4,4.6v2.6h-3
	v3.4h3v8.2c0.6,0.1,1.2,0.1,1.8,0.1c0.6,0,1.2,0,1.8-0.1v-8.2h2.7V15.1z"/>
</svg>
