<?xml version="1.0" encoding="utf-8"?>
<!-- Generator: Adobe Illustrator 25.0.0, SVG Export Plug-In . SVG Version: 6.00 Build 0)  -->
<svg version="1.1" id="图层_1" xmlns="http://www.w3.org/2000/svg" xmlns:xlink="http://www.w3.org/1999/xlink" x="0px" y="0px"
	 viewBox="0 0 18 18" style="enable-background:new 0 0 18 18;" xml:space="preserve">
<style type="text/css">
	.st0{fill:#707070;}
</style>
<g id="Layer_63">
	<path class="st0" d="M16.3,13.7c1.8-2.6,1.8-6.6,0-9.3C13-0.8,5.1-0.8,1.7,4.5c-1.8,2.6-1.8,6.6,0,9.3C5,19,13,19,16.3,13.7
		C16.3,13.8,16.3,13.7,16.3,13.7z M1.3,9.6h2.6c0,1.2,0.2,2.4,0.5,3.5h-2C1.7,12,1.3,10.8,1.3,9.6z M2.3,5.2h2
		C4,6.3,3.9,7.5,3.8,8.7H1.3C1.3,7.4,1.7,6.2,2.3,5.2z M16.7,8.7h-2.6c0-1.2-0.2-2.4-0.5-3.5h2C16.3,6.2,16.7,7.4,16.7,8.7z
		 M13.3,8.7h-2.6c0-0.9,0-2.2-0.1-3.5h2.1C13,6.3,13.2,7.5,13.3,8.7z M8.3,13.1c-0.1-1-0.1-2.2-0.2-3.5h1.6c0,1.3-0.1,2.5-0.2,3.5
		H8.3z M9.6,13.9c-0.2,1.4-0.4,2.4-0.6,2.8c-0.2-0.4-0.4-1.4-0.6-2.8H9.6z M8.2,8.7c0-1.3,0.1-2.5,0.2-3.5h1.3
		c0.1,1,0.1,2.2,0.2,3.5H8.2z M8.4,4.3C8.6,2.9,8.8,1.9,9,1.5c0.2,0.4,0.4,1.4,0.6,2.8H8.4z M10.5,4.3c-0.1-0.9-0.3-1.8-0.5-2.7
		c0.9,0.4,1.8,1.4,2.4,2.7H10.5z M8.1,1.6C7.8,2.4,7.6,3.4,7.5,4.3H5.7C6.3,2.9,7.1,2,8.1,1.6z M7.4,5.2C7.3,6.5,7.3,7.8,7.3,8.7
		H4.7c0-1.2,0.2-2.4,0.6-3.5H7.4z M4.7,9.6h2.6c0,0.9,0,2.2,0.1,3.5H5.3C5,11.9,4.8,10.7,4.7,9.6z M7.5,13.9
		c0.1,0.9,0.3,1.8,0.5,2.7c-0.9-0.4-1.8-1.4-2.4-2.7H7.5z M9.9,16.7c0.3-0.9,0.4-1.8,0.5-2.7h1.9C11.7,15.3,10.9,16.3,9.9,16.7z
		 M10.6,13.1c0.1-1.3,0.1-2.6,0.1-3.5h2.6c0,1.2-0.2,2.4-0.6,3.5H10.6z M14.2,9.6h2.6c-0.1,1.2-0.4,2.4-1.1,3.5h-2
		C14,11.9,14.1,10.7,14.2,9.6z M15.1,4.3h-1.8c-0.3-0.9-0.8-1.7-1.4-2.4C13.1,2.4,14.2,3.2,15.1,4.3z M6.1,1.9
		C5.5,2.6,5,3.4,4.7,4.3H2.9C3.8,3.2,4.9,2.4,6.1,1.9z M2.9,13.9h1.8c0.3,0.9,0.8,1.7,1.4,2.4C4.9,15.8,3.8,15,2.9,13.9z M11.9,16.3
		c0.6-0.7,1.1-1.5,1.4-2.4h1.8C14.2,15,13.1,15.8,11.9,16.3z"/>
</g>
</svg>
