<?xml version="1.0" encoding="utf-8"?>
<!-- Generator: Adobe Illustrator 25.0.0, SVG Export Plug-In . SVG Version: 6.00 Build 0)  -->
<svg version="1.1" id="图层_1" xmlns:serif="http://www.serif.com/"
	 xmlns="http://www.w3.org/2000/svg" xmlns:xlink="http://www.w3.org/1999/xlink" x="0px" y="0px" viewBox="0 0 30 30"
	 style="enable-background:new 0 0 30 30;" xml:space="preserve">
<style type="text/css">
	.st0{fill:none;}
	.st1{fill:#FFFFFF;}
</style>
<rect x="120" y="-844.9" class="st0" width="843.8" height="843.8"/>
<path class="st1" d="M9.6,23.5c10.9,0,16.9-9,16.9-16.9c0-0.3,0-0.5,0-0.8c1.2-0.8,2.2-1.9,3-3.1c-1.1,0.5-2.2,0.8-3.4,0.9
	c1.2-0.7,2.2-1.9,2.6-3.3c-1.2,0.7-2.4,1.2-3.8,1.4c-1.1-1-2.7-1.7-4.3-1.7c-3.3,0-5.9,2.7-5.9,5.9c0,0.5,0.1,0.9,0.2,1.3
	C10,7,5.6,4.8,2.6,1.1C1,3.8,1.8,7.3,4.4,9c-1,0-1.9-0.3-2.7-0.7v0.1c0,2.8,2,5.3,4.8,5.8c-0.9,0.2-1.8,0.3-2.7,0.1
	c0.8,2.4,3,4.1,5.5,4.1C7.2,20,4.6,20.9,2,20.9c-0.5,0-0.9,0-1.4-0.1C3.3,22.6,6.4,23.5,9.6,23.5"/>
</svg>
