<?xml version="1.0" encoding="utf-8"?>
<!-- Generator: Adobe Illustrator 25.0.0, SVG Export Plug-In . SVG Version: 6.00 Build 0)  -->
<svg version="1.1" id="图层_1" xmlns:serif="http://www.serif.com/"
	 xmlns="http://www.w3.org/2000/svg" xmlns:xlink="http://www.w3.org/1999/xlink" x="0px" y="0px" viewBox="0 0 30 30"
	 style="enable-background:new 0 0 30 30;" xml:space="preserve">
<style type="text/css">
	.st0{fill:none;}
	.st1{fill:#FFFFFF;}
	.st2{fill:#111111;}
</style>
<rect x="120" y="-844.9" class="st0" width="843.8" height="843.8"/>
<path class="st1" d="M28.9,4.4c-0.3-1.2-1.3-2.2-2.5-2.5c-2.2-0.6-11.3-0.6-11.3-0.6s-9,0-11.3,0.6C2.6,2.2,1.6,3.2,1.3,4.4
	c-0.6,2.2-0.6,6.9-0.6,6.9s0,4.7,0.6,6.9c0.3,1.2,1.3,2.2,2.5,2.5c2.2,0.6,11.3,0.6,11.3,0.6s9,0,11.3-0.6c1.2-0.3,2.2-1.3,2.5-2.5
	c0.6-2.2,0.6-6.9,0.6-6.9S29.5,6.7,28.9,4.4L28.9,4.4z"/>
<path class="st2" d="M12.2,15.7l7.5-4.3L12.2,7V15.7L12.2,15.7z"/>
</svg>
