<?xml version="1.0" encoding="utf-8"?>
<!-- Generator: Adobe Illustrator 25.0.0, SVG Export Plug-In . SVG Version: 6.00 Build 0)  -->
<svg version="1.1" id="图层_1" xmlns:serif="http://www.serif.com/"
	 xmlns="http://www.w3.org/2000/svg" xmlns:xlink="http://www.w3.org/1999/xlink" x="0px" y="0px" viewBox="0 0 30 30"
	 style="enable-background:new 0 0 30 30;" xml:space="preserve">
<style type="text/css">
	.st0{fill:none;}
	.st1{fill:#FFFFFF;}
</style>
<rect x="120" y="-844.9" class="st0" width="843.8" height="843.8"/>
<path class="st1" d="M15.7,0.1c-3.2,0-3.6,0-4.8,0.1C9.6,0.2,8.8,0.4,8,0.7S6.6,1.4,5.9,2c-0.6,0.7-1,1.3-1.3,2.1
	C4.3,4.8,4.1,5.7,4.1,6.9C4,8.2,4,8.6,4,11.8s0,3.6,0.1,4.8s0.3,2.1,0.5,2.8c0.3,0.8,0.7,1.4,1.3,2.1c0.7,0.7,1.3,1.1,2.1,1.3
	c0.7,0.3,1.6,0.5,2.8,0.5c1.2,0.1,1.6,0.1,4.8,0.1s3.6,0,4.8-0.1s2.1-0.3,2.8-0.5c0.8-0.3,1.4-0.7,2.1-1.3c0.7-0.7,1.1-1.3,1.3-2.1
	c0.3-0.7,0.5-1.6,0.5-2.8c0.1-1.2,0.1-1.6,0.1-4.8s0-3.6-0.1-4.8s-0.3-2.1-0.5-2.8c-0.3-0.8-0.7-1.4-1.3-2.1C24.6,1.4,24,1,23.2,0.8
	c-0.7-0.3-1.6-0.5-2.8-0.5C19.3,0.1,18.9,0.1,15.7,0.1L15.7,0.1z M15.7,2.2c3.1,0,3.5,0,4.7,0.1c1.1,0.1,1.8,0.2,2.2,0.4
	c0.5,0.2,0.9,0.5,1.3,0.9s0.7,0.8,0.9,1.3c0.2,0.4,0.4,1,0.4,2.2c0.1,1.2,0.1,1.6,0.1,4.7s0,3.5-0.1,4.7c-0.1,1.1-0.2,1.8-0.4,2.2
	c-0.2,0.5-0.5,0.9-0.9,1.3s-0.8,0.7-1.3,0.9c-0.4,0.2-1,0.4-2.2,0.4c-1.2,0.1-1.6,0.1-4.7,0.1s-3.5,0-4.7-0.1
	c-1.1-0.1-1.8-0.2-2.2-0.4c-0.5-0.2-0.9-0.5-1.3-0.9s-0.7-0.8-0.9-1.3c-0.2-0.4-0.4-1-0.4-2.2c-0.1-1.2-0.1-1.6-0.1-4.7
	s0-3.5,0.1-4.7C6.3,6,6.4,5.3,6.6,4.9c0.2-0.6,0.4-1,0.8-1.4s0.8-0.7,1.3-0.9c0.4-0.2,1-0.4,2.2-0.4C12.2,2.2,12.6,2.2,15.7,2.2
	L15.7,2.2z"/>
<path class="st1" d="M15.7,15.7c-2.2,0-3.9-1.7-3.9-3.9s1.7-3.9,3.9-3.9s3.9,1.7,3.9,3.9C19.6,13.9,17.8,15.7,15.7,15.7z M15.7,5.7
	c-3.3,0-6,2.7-6,6s2.7,6,6,6s6-2.7,6-6S19,5.7,15.7,5.7z"/>
<path class="st1" d="M23.3,5.5c0,0.8-0.6,1.4-1.4,1.4s-1.4-0.6-1.4-1.4s0.6-1.4,1.4-1.4C22.7,4.1,23.3,4.7,23.3,5.5L23.3,5.5z"/>
</svg>
