<?xml version="1.0" encoding="utf-8"?>
<!-- Generator: Adobe Illustrator 25.0.0, SVG Export Plug-In . SVG Version: 6.00 Build 0)  -->
<svg version="1.1" id="_x37C_" xmlns="http://www.w3.org/2000/svg" xmlns:xlink="http://www.w3.org/1999/xlink" x="0px" y="0px"
	 viewBox="0 0 179 62" style="enable-background:new 0 0 179 62;" xml:space="preserve">
<style type="text/css">
	.st0{fill-rule:evenodd;clip-rule:evenodd;fill:#E60012;stroke:#E60012;stroke-miterlimit:22.9256;}
</style>
<g>
	<path class="st0" d="M27,6.9c5.2,1.3,9,4.2,11.5,8.6c2.1,3.7,2.9,7.6,2.3,11.7c-1.3-5-3.5-8.4-6.5-10.2c-1.1-0.7-3-1.4-5.6-2.3
		s-4.6-1.7-6-2.4c-2.2-1.3-4.2-3.1-6-5.4C20,6,23.4,6,27,6.9z"/>
	<path class="st0" d="M17.4,43.2c-5.1-1.3-9-4.2-11.5-8.6C3.7,31,3,27.1,3.5,22.9c1.3,5,3.5,8.4,6.5,10.2c1.1,0.7,3,1.4,5.6,2.3
		c2.6,0.9,4.6,1.7,6,2.4c2.2,1.3,4.2,3.1,6,5.4C24.4,44.1,21,44.2,17.4,43.2z"/>
	<path class="st0" d="M26.3,29.3v-8.5h-8.5v8.5H26.3L26.3,29.3z M28.5,31.4h-8.9c-2.1,0-3.8-1.7-3.8-3.8v-8.9l0,0h8.9
		c2.1,0,3.8,1.7,3.8,3.8C28.5,22.5,28.5,31.4,28.5,31.4z"/>
</g>
<g>
	<path class="st0" d="M164.5,15.7v10.2c0,1.1,0.1,1.8,0.3,2.1c0.4,0.7,1.1,0.2,1.1,0.9h-4.3c0-0.7,0.7-0.2,1.1-0.9
		c0.2-0.3,0.3-1,0.3-2.1v-9.2c0-1.1-0.1-1.7-0.3-2.1c-0.4-0.7-1.1-0.2-1.1-0.9h5.5c0,0.4,0,0.2-0.2,0.4c0,0,0,0.1,0,0.2
		s0.1,0.3,0.3,0.4l0.1,0.1l4.9,4.6v-4.1c0-0.5-0.1-0.8-0.3-0.9c-0.4-0.4-1-0.1-1-0.8h4.1c0,0.7-0.7,0.2-1.1,0.9
		c-0.2,0.3-0.3,1-0.3,2.1v9.2c0,1.1,0.1,1.7,0.3,2.1c0.4,0.7,1.1,0.2,1.1,0.9h-4.3c0-0.7,0.7-0.2,1.1-0.9c0.2-0.3,0.3-1,0.3-2.1v-3
		L164.5,15.7z"/>
	<path class="st0" d="M127.6,23.3h0.4c0.4,1.6,1.1,2.8,2.1,3.6c1,0.9,2.2,1.3,3.6,1.3c1.2,0,2.2-0.3,2.9-1c0.8-0.7,1.2-1.5,1.2-2.5
		c0-0.8-0.3-1.4-0.9-1.9c-0.6-0.4-1.7-0.9-3.5-1.4c-2.2-0.6-3.6-1.2-4.2-1.8c-0.7-0.6-1-1.3-1-2.2c0-1.1,0.4-2,1.3-2.7
		c0.9-0.7,2-1.1,3.3-1.1c0.8,0,1.6,0.1,2.4,0.2c3.5,0.6,2.1-0.7,3.3,4.6h-0.3c-0.5-1.2-1.1-2.1-2-2.7s-1.9-0.9-3-0.9
		c-0.8,0-1.5,0.2-2,0.5c-0.5,0.4-0.8,0.8-0.8,1.3c0,0.8,1.1,1.4,3.2,2c0.3,0.1,0.6,0.2,0.8,0.2c2.3,0.7,3.8,1.3,4.6,2.1
		c0.8,0.7,1.1,1.7,1.1,3c0,1.5-0.6,2.8-1.8,3.8s-2.8,1.5-4.7,1.5c-0.8,0-1.6-0.1-2.5-0.3C127.5,28.2,128.6,27.8,127.6,23.3z"/>
	<path class="st0" d="M103.4,16.8V33c0,1.7,0.2,2.8,0.5,3.3c0.7,1.1,1.7,0.2,1.7,1.3h-6.8c0-1.1,1.1-0.3,1.8-1.4
		c0.3-0.5,0.5-1.6,0.5-3.3V18.4c0-1.7-0.2-2.8-0.5-3.3c-0.7-1.1-1.7-0.3-1.8-1.4h8.7c0,0.6,0,0.4-0.3,0.7c0,0.1-0.1,0.2-0.1,0.3
		c0,0.2,0.2,0.4,0.5,0.7c0.1,0.1,0.1,0.1,0.1,0.1l7.8,7.2v-6.4c0-0.8-0.1-1.2-0.4-1.5c-0.7-0.7-1.5-0.1-1.5-1.2h6.5
		c0,1.1-1.1,0.3-1.8,1.4c-0.3,0.5-0.5,1.6-0.5,3.3V33c0,1.7,0.1,2.8,0.5,3.3c0.7,1.1,1.8,0.3,1.8,1.4h-6.8c0-1.1,1.1-0.3,1.8-1.4
		c0.3-0.5,0.5-1.6,0.5-3.3v-4.8L103.4,16.8z"/>
	<path class="st0" d="M73.3,13.7h8.9c0,1-1.3,0.5-2,1.7c-0.4,0.6-0.7,2.1-0.8,4.3l-0.4,8c0,0.4,0,0.7-0.1,1.1c0,0.4,0,0.7,0,1.1
		c0,2.1,0.5,3.6,1.5,4.6S82.9,36,85,36c0.8,0,1.6-0.1,2.4-0.4c0.8-0.3,1.4-0.7,1.9-1.2s0.8-1.1,1-1.9c0.2-0.7,0.3-1.8,0.3-3.1
		c0-0.5,0-0.9,0-1.2s0-0.5,0-0.8l-0.2-5c-0.1-3.4-0.4-5.6-0.9-6.5c-0.8-1.6-2.5-1.1-2.5-2.1h7.9c0,1-1.1,0.5-1.8,1.5
		c-0.4,0.6-0.7,1.3-0.7,2.1c0,0.2,0,0.5,0,0.9c0,0.3,0,0.5,0,0.6l0.3,5.9c0,0.4,0.1,1.2,0.1,2.2c0,1.1,0.1,1.8,0.1,2.4
		c0,2.9-0.8,5.1-2.4,6.5c-1.6,1.5-3.9,2.2-7.1,2.2c-1.4,0-2.6-0.2-3.7-0.5s-2-0.8-2.7-1.5c-0.8-0.7-1.4-1.6-1.7-2.6
		c-0.4-1-0.5-2.4-0.5-4.1c0-0.5,0-0.9,0-1.1s0-0.5,0-0.7l0.3-9.4c0-0.1,0-0.3,0-0.5s0-0.4,0-0.5c0-1.1-0.1-1.9-0.4-2.3
		C74.2,14,73.3,14.8,73.3,13.7z"/>
	<path class="st0" d="M49.3,28.9h0.6c0.6,2.5,1.7,4.4,3.3,5.8c1.6,1.4,3.5,2,5.7,2c1.9,0,3.5-0.5,4.7-1.6c1.2-1.1,1.9-2.4,1.9-3.9
		c0-1.2-0.4-2.2-1.4-3c-0.9-0.7-2.8-1.5-5.6-2.3c-3.4-1-5.7-1.9-6.7-2.8c-1-0.9-1.5-2-1.5-3.5c0-1.7,0.7-3.1,2-4.3
		c1.4-1.1,3.1-1.7,5.3-1.7c1.2,0,2.5,0.1,3.8,0.4c5.5,1,3.4-1.1,5.2,7.2c-0.8,0-2.3-3.3-3.6-4.2c-1.3-1-2.9-1.4-4.8-1.4
		c-1.3,0-2.4,0.3-3.2,0.9c-0.9,0.6-1.3,1.2-1.3,2.1c0,1.2,1.7,2.3,5,3.2c0.5,0.1,1,0.3,1.3,0.4c3.6,1,6.1,2.1,7.3,3.3
		c1.2,1.2,1.8,2.7,1.8,4.7c0,2.5-0.9,4.5-2.9,6.1c-1.9,1.6-4.4,2.4-7.4,2.4c-1.2,0-2.5-0.2-3.9-0.5C48.9,36.6,51.2,38.2,49.3,28.9z"
		/>
	<path class="st0" d="M150.8,28.1c0.2,0,0.4,0,0.5,0c1.3,0,2.5-0.5,3.4-1.6s1.4-2.4,1.4-4c0-2-0.6-3.8-1.7-5.3c-1-1.3-2.1-2-3.5-2.2
		c-0.2,0-0.4,0-0.6,0c-1.4,0-2.5,0.5-3.4,1.6s-1.3,2.5-1.3,4.2c0,0.9,0.2,1.8,0.4,2.7c0.3,0.9,0.7,1.7,1.3,2.4
		c0.6,0.8,1.2,1.3,1.9,1.7C149.7,27.9,150.3,28,150.8,28.1L150.8,28.1z M150.8,29.4L150.8,29.4c-2.3,0-4.2-0.7-5.7-2.2
		s-2.3-3.4-2.3-5.6l0,0c0-2.2,0.8-4.1,2.3-5.6s3.4-2.3,5.6-2.3c2.2,0,4.1,0.8,5.6,2.3s2.3,3.4,2.3,5.6s-0.8,4.1-2.3,5.6
		C155,28.7,153.1,29.4,150.8,29.4z"/>
</g>
</svg>
